<?xml version="1.0" encoding="UTF-8"?>
<svg id="e" data-name="&amp;lt;Livello&amp;gt;" xmlns="http://www.w3.org/2000/svg" width="25.824" height="36.139" xmlns:xlink="http://www.w3.org/1999/xlink" viewBox="0 0 25.824 36.139">
  <defs>
    <linearGradient id="f" data-name="Sfumatura senza nome 34" x1="5615.518" y1="4122.754" x2="5631.591" y2="4122.754" gradientTransform="translate(-4113.717 5635.425) rotate(-90)" gradientUnits="userSpaceOnUse">
      <stop offset="0" stop-color="#94d0cf" stop-opacity=".5"/>
      <stop offset="1" stop-color="#94d0cf"/>
    </linearGradient>
    <linearGradient id="g" data-name="Sfumatura senza nome 33" x1="7.165" y1="10.187" x2="19.26" y2="10.187" gradientUnits="userSpaceOnUse">
      <stop offset="0" stop-color="#ff828d"/>
      <stop offset="1" stop-color="#ff9da6"/>
    </linearGradient>
  </defs>
  <g>
    <path d="M24.401,13.206L17.91,1.186c-.854-1.582-3.124-1.582-3.978,0l-1.43,2.648h1.382c.623,0,1.198.332,1.51.872l3.633,6.293c.311.539.311,1.204,0,1.743l-2.193,3.799h5.579c1.712,0,2.802-1.829,1.989-3.335Z" fill="#ff4050"/>
    <path d="M7.44,13.206L12.502,3.834h-5.884c-.623,0-1.198.332-1.51.872l-3.633,6.293c-.311.539-.311,1.204,0,1.743l3.633,6.293c.311.539.887.872,1.51.872h7.267c.623,0,1.198-.332,1.51-.872l1.44-2.494h-7.405c-1.712,0-2.802-1.829-1.989-3.335Z" fill="url(#f)"/>
    <path d="M19.027,10.999l-3.633-6.293c-.311-.539-.887-.872-1.51-.872h-1.382l-5.062,9.372c-.813,1.506.277,3.335,1.989,3.335h7.405l2.193-3.799c.311-.539.311-1.204,0-1.743Z" fill="url(#g)"/>
  </g>
  <g>
    <path d="M1.339,35.813c-.428-.218-.758-.531-.99-.938s-.349-.886-.349-1.435.116-1.027.349-1.435.562-.722.99-.942.923-.33,1.486-.33c.376,0,.709.036.998.107.289.072.558.187.805.345v1.246c-.218-.173-.464-.298-.738-.375s-.59-.115-.945-.115c-.307,0-.58.061-.819.182-.24.121-.43.295-.567.523-.139.228-.208.492-.208.793,0,.47.138.841.412,1.112.274.272.646.408,1.116.408.262,0,.481-.044.659-.134v-.831h-.793v-.919h2.039v2.581c-.528.321-1.182.482-1.958.482-.563,0-1.059-.109-1.486-.326Z" fill="#ff4050"/>
    <path d="M6.192,35.897c-.331-.161-.587-.383-.768-.667-.181-.284-.271-.612-.271-.982s.09-.699.271-.983.437-.507.768-.667.717-.241,1.157-.241.825.081,1.157.241c.331.161.587.383.768.667.18.284.271.612.271.983s-.091.698-.271.982c-.181.285-.437.507-.768.667-.332.161-.718.241-1.157.241s-.826-.081-1.157-.241ZM7.977,34.889c.155-.156.233-.369.233-.641s-.078-.486-.233-.642c-.156-.156-.365-.234-.627-.234s-.471.078-.627.234c-.155.156-.233.37-.233.642s.078.485.233.641c.156.156.364.234.627.234s.471-.078.627-.234Z" fill="#ff4050"/>
    <path d="M9.434,32.467h1.306l.808,2.069.802-2.069h1.305l-1.49,3.56h-1.239l-1.49-3.56Z" fill="#ff4050"/>
    <path d="M15.363,35.813c-.428-.218-.758-.531-.99-.938s-.349-.886-.349-1.435.116-1.027.349-1.435.562-.722.99-.942.923-.33,1.486-.33c.371,0,.702.037.994.111s.562.19.809.349v1.246c-.218-.173-.464-.299-.738-.378s-.59-.119-.945-.119c-.51,0-.902.132-1.18.396-.276.265-.415.632-.415,1.102s.14.838.419,1.105.671.4,1.176.4c.355,0,.675-.042.957-.126.281-.084.543-.217.786-.4v1.239c-.47.321-1.091.482-1.862.482-.563,0-1.059-.109-1.486-.326Z" fill="#ff4050"/>
    <path d="M19.383,35.816c-.274-.215-.411-.516-.411-.901,0-.401.132-.708.396-.923.265-.215.645-.323,1.139-.323.192,0,.386.021.578.063.193.042.358.098.497.167v-.074c0-.381-.312-.571-.935-.571-.435,0-.833.084-1.193.252v-.897c.157-.074.365-.135.622-.182.258-.047.524-.071.802-.071.662,0,1.163.132,1.502.397.338.265.508.634.508,1.109v2.166h-1.224v-.304c-.134.129-.302.23-.505.304-.202.074-.435.111-.697.111-.444,0-.805-.107-1.079-.323ZM21.278,35.245c.133-.062.234-.142.304-.241v-.312c-.213-.144-.455-.215-.727-.215-.173,0-.307.037-.4.111s-.142.183-.142.327c0,.133.046.237.138.312.092.074.224.111.396.111.153,0,.297-.031.431-.092Z" fill="#ff4050"/>
    <path d="M23.877,35.771c-.225-.245-.338-.58-.338-1.005v-1.395h-.504v-.905h.504v-1.068h1.306v1.068h.815v.905h-.815v1.216c0,.193.036.332.107.416.072.084.199.126.382.126.163,0,.326-.044.49-.133v.971c-.129.06-.267.103-.412.13-.146.027-.325.041-.538.041-.439,0-.772-.123-.997-.367Z" fill="#ff4050"/>
  </g>
</svg>